<svg width="47" height="50" fill="none" xmlns="http://www.w3.org/2000/svg"><path d="M38.282 32.722H8.643a4.334 4.334 0 00-3.083-4.167V8.458a4.167 4.167 0 002.889-2.903h13.889a4.292 4.292 0 002.903 2.903v6.486l-2.598 2.611-1.389-1.388a1.22 1.22 0 00-1.736 0 1.236 1.236 0 000 1.75l1.39 1.388-1.39 1.39a1.236 1.236 0 00.868 2.111 1.222 1.222 0 00.869-.362l1.388-1.389 2.959 2.959a1.224 1.224 0 001.736 0l3.07-2.972 1.388 1.388a1.235 1.235 0 101.736-1.75l-1.389-1.388 1.39-1.39a1.236 1.236 0 00-1.339-2.017 1.22 1.22 0 00-.398.268l-1.389 1.389-2.583-2.598V8.458a4.32 4.32 0 10-5.375-5.375H8.56a4.32 4.32 0 10-5.472 5.375v20.125A4.334 4.334 0 00.004 32.75v1.111a.347.347 0 000 .111v7.417a8.653 8.653 0 008.64 8.61h29.638a8.639 8.639 0 100-17.277zm-9.722-13.43l-2.028 2.097-2.07-2.097 2.07-2.084 2.028 2.084zm9.722 25.764a3.71 3.71 0 113.695-3.695 3.694 3.694 0 01-3.695 3.695zM4.95 41.36a3.708 3.708 0 117.416-.028 3.708 3.708 0 01-7.416.028zm27.153 0a3.708 3.708 0 11-7.416 0 3.708 3.708 0 017.416 0zm-9.875 0a3.71 3.71 0 11-7.418 0 3.71 3.71 0 017.418 0z" fill="#0B7572"/><path d="M8.643 42.598a1.236 1.236 0 100-2.472 1.236 1.236 0 000 2.472zm9.875 0a1.236 1.236 0 100-2.473 1.236 1.236 0 000 2.473zm9.889 0a1.236 1.236 0 100-2.472 1.236 1.236 0 000 2.472zm9.875 0a1.236 1.236 0 100-2.472 1.236 1.236 0 000 2.472z" fill="#0B7572"/></svg>